<svg width="337" height="211" viewBox="0 0 337 211" fill="none" xmlns="http://www.w3.org/2000/svg">
<path d="M214 35.3757H199C198.204 35.3757 197.441 35.0595 196.879 34.4967C196.316 33.9338 196 33.1704 196 32.3744V18.8685C196 18.0725 196.316 17.3091 196.879 16.7463C197.441 16.1834 198.204 15.8672 199 15.8672H214" stroke="#181824" stroke-width="2.4" stroke-linecap="round" stroke-linejoin="round"/>
<path d="M214 41.3789H205" stroke="#181824" stroke-width="2.4" stroke-linecap="round" stroke-linejoin="round"/>
<path d="M232 14.3672H226" stroke="#181824" stroke-width="2.4" stroke-linecap="round" stroke-linejoin="round"/>
<path d="M232 20.3711H226" stroke="#181824" stroke-width="2.4" stroke-linecap="round" stroke-linejoin="round"/>
<path d="M236.5 8.36523H221.5C220.672 8.36523 220 9.03711 220 9.8659V39.8792C220 40.708 220.672 41.3799 221.5 41.3799H236.5C237.328 41.3799 238 40.708 238 39.8792V9.8659C238 9.03711 237.328 8.36523 236.5 8.36523Z" stroke="#181824" stroke-width="2.4" stroke-linecap="round" stroke-linejoin="round"/>
<path d="M209.5 35.377V41.377" stroke="#181824" stroke-width="2.4" stroke-linecap="round" stroke-linejoin="round"/>
<path d="M229 36.875C230.243 36.875 231.25 35.8676 231.25 34.625C231.25 33.3824 230.243 32.375 229 32.375C227.757 32.375 226.75 33.3824 226.75 34.625C226.75 35.8676 227.757 36.875 229 36.875Z" fill="#181824"/>
<path d="M188.528 73.32V64.344C188.528 63.7786 188.816 63.496 189.392 63.496H192.336C193.946 63.4746 195.274 63.9813 196.32 65.016C197.376 66.04 197.893 67.3146 197.872 68.84C197.893 70.376 197.381 71.6506 196.336 72.664C195.29 73.6773 193.957 74.1786 192.336 74.168H189.392C188.816 74.168 188.528 73.8853 188.528 73.32ZM190.128 72.76H192.336C193.52 72.76 194.464 72.392 195.168 71.656C195.872 70.9093 196.224 69.9706 196.224 68.84C196.224 67.6986 195.872 66.76 195.168 66.024C194.474 65.2773 193.53 64.904 192.336 64.904H190.128V72.76ZM203.169 66.248C204.268 66.248 205.169 66.6266 205.873 67.384C206.577 68.1306 206.929 69.032 206.929 70.088C206.929 70.3013 206.854 70.472 206.705 70.6C206.556 70.7173 206.348 70.776 206.081 70.776H200.817C200.87 71.4693 201.137 72.0453 201.617 72.504C202.097 72.952 202.705 73.176 203.441 73.176C204.145 73.176 204.785 72.968 205.361 72.552C205.436 72.4986 205.542 72.472 205.681 72.472C205.841 72.472 205.974 72.5306 206.081 72.648C206.198 72.7546 206.257 72.888 206.257 73.048C206.257 73.2613 206.172 73.4213 206.001 73.528C205.254 74.0826 204.353 74.36 203.297 74.36C202.134 74.36 201.174 73.9813 200.417 73.224C199.67 72.4666 199.297 71.4906 199.297 70.296C199.276 69.1866 199.644 68.232 200.401 67.432C201.158 66.6213 202.081 66.2266 203.169 66.248ZM200.801 69.736H205.521C205.5 69.128 205.286 68.5946 204.881 68.136C204.476 67.6666 203.905 67.432 203.169 67.432C202.465 67.432 201.905 67.6613 201.489 68.12C201.084 68.5786 200.854 69.1173 200.801 69.736ZM208.186 72.984C208.186 72.8026 208.245 72.6533 208.362 72.536C208.49 72.4186 208.639 72.36 208.81 72.36C208.938 72.36 209.055 72.3973 209.162 72.472C209.845 72.9626 210.57 73.208 211.338 73.208C211.871 73.208 212.282 73.112 212.57 72.92C212.858 72.728 213.002 72.456 213.002 72.104C213.002 71.7733 212.853 71.5226 212.554 71.352C212.266 71.1706 211.791 71.0053 211.13 70.856C210.437 70.6853 209.946 70.5466 209.658 70.44C208.741 70.0666 208.282 69.432 208.282 68.536C208.282 67.8853 208.549 67.3413 209.082 66.904C209.615 66.4666 210.33 66.248 211.226 66.248C212.218 66.248 213.077 66.5146 213.802 67.048C213.973 67.176 214.058 67.336 214.058 67.528C214.058 67.688 213.999 67.8266 213.882 67.944C213.765 68.0613 213.626 68.12 213.466 68.12C213.338 68.12 213.231 68.0826 213.146 68.008C212.623 67.6133 211.989 67.416 211.242 67.416C210.751 67.416 210.362 67.5066 210.074 67.688C209.797 67.8693 209.658 68.1146 209.658 68.424C209.658 68.7013 209.797 68.92 210.074 69.08C210.351 69.24 210.81 69.3946 211.45 69.544C212.058 69.6826 212.559 69.8266 212.954 69.976C213.914 70.3493 214.394 71.0213 214.394 71.992C214.394 72.696 214.117 73.2666 213.562 73.704C213.007 74.1413 212.245 74.36 211.274 74.36C210.165 74.36 209.226 74.072 208.458 73.496C208.277 73.368 208.186 73.1973 208.186 72.984ZM222.791 73.528C222.791 73.7306 222.721 73.9013 222.583 74.04C222.455 74.1786 222.289 74.248 222.087 74.248C221.841 74.248 221.655 74.168 221.527 74.008L218.855 70.856L217.655 71.976V73.528C217.655 73.7306 217.58 73.9013 217.431 74.04C217.292 74.1786 217.121 74.248 216.919 74.248C216.727 74.248 216.561 74.1786 216.423 74.04C216.284 73.9013 216.215 73.7306 216.215 73.528V64.136C216.215 63.9333 216.284 63.7626 216.423 63.624C216.561 63.4853 216.732 63.416 216.935 63.416C217.127 63.416 217.292 63.4853 217.431 63.624C217.58 63.7626 217.655 63.9333 217.655 64.136V70.36L221.543 66.536C221.66 66.4186 221.815 66.36 222.007 66.36C222.188 66.36 222.343 66.4293 222.471 66.568C222.599 66.696 222.663 66.8506 222.663 67.032C222.663 67.2026 222.593 67.3573 222.455 67.496L219.911 69.976L222.615 73.048C222.732 73.1973 222.791 73.3573 222.791 73.528ZM228.127 73.592C228.127 73.8693 228.004 74.0506 227.759 74.136C227.428 74.2853 227.06 74.36 226.655 74.36C226.047 74.36 225.588 74.1946 225.279 73.864C224.97 73.5333 224.815 73.064 224.815 72.456V67.704H224.079C223.908 67.704 223.759 67.64 223.631 67.512C223.503 67.384 223.439 67.2346 223.439 67.064C223.439 66.8933 223.503 66.7493 223.631 66.632C223.759 66.504 223.908 66.44 224.079 66.44H224.815V64.968C224.815 64.7653 224.884 64.5946 225.023 64.456C225.162 64.3173 225.332 64.248 225.535 64.248C225.727 64.248 225.892 64.3173 226.031 64.456C226.18 64.5946 226.255 64.7653 226.255 64.968V66.44H227.263C227.434 66.44 227.583 66.504 227.711 66.632C227.839 66.7493 227.903 66.8933 227.903 67.064C227.903 67.2346 227.839 67.384 227.711 67.512C227.594 67.64 227.444 67.704 227.263 67.704H226.255V72.136C226.255 72.424 226.319 72.6533 226.447 72.824C226.575 72.9946 226.762 73.08 227.007 73.08C227.092 73.08 227.194 73.064 227.311 73.032C227.439 73 227.508 72.984 227.519 72.984C227.7 72.984 227.844 73.0426 227.951 73.16C228.068 73.2666 228.127 73.4106 228.127 73.592ZM228.938 70.296C228.938 69.1546 229.3 68.1946 230.026 67.416C230.751 66.6373 231.69 66.248 232.842 66.248C233.994 66.248 234.932 66.6373 235.658 67.416C236.383 68.1946 236.746 69.1546 236.746 70.296C236.746 71.448 236.383 72.4133 235.658 73.192C234.932 73.9706 233.994 74.36 232.842 74.36C231.69 74.36 230.751 73.9706 230.026 73.192C229.3 72.4133 228.938 71.448 228.938 70.296ZM234.586 72.28C235.023 71.736 235.242 71.0746 235.242 70.296C235.242 69.5173 235.023 68.8613 234.586 68.328C234.159 67.7946 233.578 67.528 232.842 67.528C232.127 67.528 231.546 67.8 231.098 68.344C230.66 68.8773 230.442 69.528 230.442 70.296C230.442 71.0746 230.66 71.736 231.098 72.28C231.535 72.8133 232.116 73.08 232.842 73.08C233.578 73.08 234.159 72.8133 234.586 72.28ZM245.022 67.352C245.662 68.0773 245.982 69.0586 245.982 70.296C245.982 71.5333 245.662 72.52 245.022 73.256C244.393 73.992 243.566 74.36 242.542 74.36C241.497 74.36 240.654 73.9226 240.014 73.048V76.472C240.014 76.6746 239.939 76.8453 239.79 76.984C239.651 77.1226 239.486 77.192 239.294 77.192C239.091 77.192 238.921 77.1226 238.782 76.984C238.643 76.8453 238.574 76.6746 238.574 76.472V67.08C238.574 66.8773 238.643 66.7066 238.782 66.568C238.921 66.4293 239.091 66.36 239.294 66.36C239.486 66.36 239.651 66.4293 239.79 66.568C239.939 66.7066 240.014 66.8773 240.014 67.08V67.528C240.654 66.6746 241.497 66.248 242.542 66.248C243.566 66.248 244.393 66.616 245.022 67.352ZM244.478 70.296C244.478 69.4853 244.265 68.824 243.838 68.312C243.411 67.7893 242.851 67.528 242.158 67.528C241.742 67.528 241.326 67.64 240.91 67.864C240.505 68.0773 240.206 68.344 240.014 68.664V71.944C240.217 72.264 240.521 72.536 240.926 72.76C241.331 72.9733 241.742 73.08 242.158 73.08C242.862 73.08 243.422 72.824 243.838 72.312C244.265 71.8 244.478 71.128 244.478 70.296Z" fill="black"/>
<path d="M295.5 33.8772V14.3685C295.5 13.5725 295.816 12.8091 296.379 12.2463C296.941 11.6834 297.704 11.3672 298.5 11.3672H325.5C326.296 11.3672 327.059 11.6834 327.621 12.2463C328.184 12.8091 328.5 13.5725 328.5 14.3685V33.8772" stroke="#181824" stroke-width="2.4" stroke-linecap="round" stroke-linejoin="round"/>
<path d="M292.5 33.875H331.5V36.875C331.5 37.6706 331.184 38.4337 330.621 38.9963C330.059 39.5589 329.296 39.875 328.5 39.875H295.5C294.704 39.875 293.941 39.5589 293.379 38.9963C292.816 38.4337 292.5 37.6706 292.5 36.875V33.875Z" stroke="#181824" stroke-width="2.4" stroke-linecap="round" stroke-linejoin="round"/>
<path d="M315 17.3691H309" stroke="#181824" stroke-width="2.4" stroke-linecap="round" stroke-linejoin="round"/>
<path d="M288.661 73.32V64.216C288.661 64.0026 288.741 63.816 288.901 63.656C289.061 63.496 289.253 63.416 289.477 63.416C289.69 63.416 289.871 63.496 290.021 63.656C290.181 63.816 290.261 64.0026 290.261 64.216V72.76H294.469C294.661 72.76 294.826 72.8293 294.965 72.968C295.114 73.096 295.189 73.256 295.189 73.448C295.189 73.6506 295.114 73.8213 294.965 73.96C294.826 74.0986 294.661 74.168 294.469 74.168H289.525C288.949 74.168 288.661 73.8853 288.661 73.32ZM302.852 68.952V73.528C302.852 73.7306 302.778 73.9013 302.628 74.04C302.49 74.1786 302.324 74.248 302.132 74.248C301.94 74.248 301.77 74.1786 301.62 74.04C301.482 73.9013 301.412 73.7306 301.412 73.528V73.304C300.804 74.008 299.962 74.36 298.884 74.36C298.17 74.36 297.54 74.1306 296.996 73.672C296.463 73.2026 296.196 72.5786 296.196 71.8C296.196 71 296.458 70.3813 296.98 69.944C297.514 69.496 298.148 69.272 298.884 69.272C299.994 69.272 300.836 69.6133 301.412 70.296V69.016C301.412 68.5466 301.242 68.1733 300.9 67.896C300.559 67.6186 300.1 67.48 299.524 67.48C298.831 67.48 298.196 67.704 297.62 68.152C297.514 68.2266 297.396 68.264 297.268 68.264C297.108 68.264 296.97 68.2053 296.852 68.088C296.746 67.9706 296.692 67.832 296.692 67.672C296.692 67.48 296.772 67.3253 296.932 67.208C297.732 66.568 298.671 66.248 299.748 66.248C300.708 66.248 301.466 66.4773 302.02 66.936C302.575 67.384 302.852 68.056 302.852 68.952ZM301.412 72.472V71.16C300.975 70.5733 300.314 70.28 299.428 70.28C298.906 70.28 298.479 70.424 298.148 70.712C297.818 70.9893 297.652 71.3573 297.652 71.816C297.652 72.2746 297.818 72.648 298.148 72.936C298.479 73.2133 298.906 73.352 299.428 73.352C300.314 73.352 300.975 73.0586 301.412 72.472ZM311.608 67.352C312.248 68.0773 312.568 69.0586 312.568 70.296C312.568 71.5333 312.248 72.52 311.608 73.256C310.978 73.992 310.152 74.36 309.128 74.36C308.082 74.36 307.24 73.9226 306.6 73.048V76.472C306.6 76.6746 306.525 76.8453 306.376 76.984C306.237 77.1226 306.072 77.192 305.88 77.192C305.677 77.192 305.506 77.1226 305.368 76.984C305.229 76.8453 305.16 76.6746 305.16 76.472V67.08C305.16 66.8773 305.229 66.7066 305.368 66.568C305.506 66.4293 305.677 66.36 305.88 66.36C306.072 66.36 306.237 66.4293 306.376 66.568C306.525 66.7066 306.6 66.8773 306.6 67.08V67.528C307.24 66.6746 308.082 66.248 309.128 66.248C310.152 66.248 310.978 66.616 311.608 67.352ZM311.064 70.296C311.064 69.4853 310.85 68.824 310.424 68.312C309.997 67.7893 309.437 67.528 308.744 67.528C308.328 67.528 307.912 67.64 307.496 67.864C307.09 68.0773 306.792 68.344 306.6 68.664V71.944C306.802 72.264 307.106 72.536 307.512 72.76C307.917 72.9733 308.328 73.08 308.744 73.08C309.448 73.08 310.008 72.824 310.424 72.312C310.85 71.8 311.064 71.128 311.064 70.296ZM317.994 73.592C317.994 73.8693 317.872 74.0506 317.626 74.136C317.296 74.2853 316.928 74.36 316.522 74.36C315.914 74.36 315.456 74.1946 315.146 73.864C314.837 73.5333 314.682 73.064 314.682 72.456V67.704H313.946C313.776 67.704 313.626 67.64 313.498 67.512C313.37 67.384 313.306 67.2346 313.306 67.064C313.306 66.8933 313.37 66.7493 313.498 66.632C313.626 66.504 313.776 66.44 313.946 66.44H314.682V64.968C314.682 64.7653 314.752 64.5946 314.89 64.456C315.029 64.3173 315.2 64.248 315.402 64.248C315.594 64.248 315.76 64.3173 315.898 64.456C316.048 64.5946 316.122 64.7653 316.122 64.968V66.44H317.13C317.301 66.44 317.45 66.504 317.578 66.632C317.706 66.7493 317.77 66.8933 317.77 67.064C317.77 67.2346 317.706 67.384 317.578 67.512C317.461 67.64 317.312 67.704 317.13 67.704H316.122V72.136C316.122 72.424 316.186 72.6533 316.314 72.824C316.442 72.9946 316.629 73.08 316.874 73.08C316.96 73.08 317.061 73.064 317.178 73.032C317.306 73 317.376 72.984 317.386 72.984C317.568 72.984 317.712 73.0426 317.818 73.16C317.936 73.2666 317.994 73.4106 317.994 73.592ZM318.805 70.296C318.805 69.1546 319.167 68.1946 319.893 67.416C320.618 66.6373 321.557 66.248 322.709 66.248C323.861 66.248 324.799 66.6373 325.525 67.416C326.25 68.1946 326.613 69.1546 326.613 70.296C326.613 71.448 326.25 72.4133 325.525 73.192C324.799 73.9706 323.861 74.36 322.709 74.36C321.557 74.36 320.618 73.9706 319.893 73.192C319.167 72.4133 318.805 71.448 318.805 70.296ZM324.453 72.28C324.89 71.736 325.109 71.0746 325.109 70.296C325.109 69.5173 324.89 68.8613 324.453 68.328C324.026 67.7946 323.445 67.528 322.709 67.528C321.994 67.528 321.413 67.8 320.965 68.344C320.527 68.8773 320.309 69.528 320.309 70.296C320.309 71.0746 320.527 71.736 320.965 72.28C321.402 72.8133 321.983 73.08 322.709 73.08C323.445 73.08 324.026 72.8133 324.453 72.28ZM334.889 67.352C335.529 68.0773 335.849 69.0586 335.849 70.296C335.849 71.5333 335.529 72.52 334.889 73.256C334.26 73.992 333.433 74.36 332.409 74.36C331.364 74.36 330.521 73.9226 329.881 73.048V76.472C329.881 76.6746 329.806 76.8453 329.657 76.984C329.518 77.1226 329.353 77.192 329.161 77.192C328.958 77.192 328.788 77.1226 328.649 76.984C328.51 76.8453 328.441 76.6746 328.441 76.472V67.08C328.441 66.8773 328.51 66.7066 328.649 66.568C328.788 66.4293 328.958 66.36 329.161 66.36C329.353 66.36 329.518 66.4293 329.657 66.568C329.806 66.7066 329.881 66.8773 329.881 67.08V67.528C330.521 66.6746 331.364 66.248 332.409 66.248C333.433 66.248 334.26 66.616 334.889 67.352ZM334.345 70.296C334.345 69.4853 334.132 68.824 333.705 68.312C333.278 67.7893 332.718 67.528 332.025 67.528C331.609 67.528 331.193 67.64 330.777 67.864C330.372 68.0773 330.073 68.344 329.881 68.664V71.944C330.084 72.264 330.388 72.536 330.793 72.76C331.198 72.9733 331.609 73.08 332.025 73.08C332.729 73.08 333.289 72.824 333.705 72.312C334.132 71.8 334.345 71.128 334.345 70.296Z" fill="black"/>
<path d="M33.9053 37.4788V12.8449C33.9053 11.6081 32.9031 10.6055 31.6668 10.6055L18.236 10.6055C16.9998 10.6055 15.9976 11.6081 15.9976 12.8449V37.4788C15.9976 38.7156 16.9998 39.7183 18.236 39.7183H31.6668C32.9031 39.7183 33.9053 38.7156 33.9053 37.4788Z" stroke="#181824" stroke-width="2.4" stroke-linecap="round" stroke-linejoin="round"/>
<path d="M20.4805 12.082H29.4343" stroke="#181824" stroke-width="2.4" stroke-linecap="round" stroke-linejoin="round"/>
<path d="M1.55938 64.7706C1.37804 64.5893 1.28738 64.3706 1.28738 64.1146C1.28738 63.8586 1.37804 63.6453 1.55938 63.4746C1.74071 63.2933 1.95938 63.2026 2.21538 63.2026C2.47138 63.2026 2.69004 63.2933 2.87138 63.4746C3.05271 63.6453 3.14338 63.8586 3.14338 64.1146C3.14338 64.3706 3.05271 64.5893 2.87138 64.7706C2.69004 64.952 2.47138 65.0426 2.21538 65.0426C1.97004 65.0426 1.75138 64.952 1.55938 64.7706ZM1.51138 73.6666V67.2186C1.51138 67.016 1.58071 66.8453 1.71938 66.7066C1.85804 66.568 2.02871 66.4986 2.23138 66.4986C2.42338 66.4986 2.58871 66.568 2.72738 66.7066C2.87671 66.8453 2.95138 67.016 2.95138 67.2186V73.6666C2.95138 73.8693 2.87671 74.04 2.72738 74.1786C2.58871 74.3173 2.41804 74.3866 2.21538 74.3866C2.02338 74.3866 1.85804 74.3173 1.71938 74.1786C1.58071 74.04 1.51138 73.8693 1.51138 73.6666ZM5.27775 73.5866V64.4826C5.27775 63.9173 5.56575 63.6346 6.14175 63.6346H9.77375C10.8191 63.6346 11.6458 63.9493 12.2538 64.5786C12.8724 65.1973 13.1818 65.976 13.1818 66.9146C13.1818 67.8426 12.8724 68.6213 12.2538 69.2506C11.6351 69.88 10.8084 70.1946 9.77375 70.1946H6.87775V73.5866C6.87775 73.8 6.79775 73.9866 6.63775 74.1466C6.48842 74.3066 6.30708 74.3866 6.09375 74.3866C5.86975 74.3866 5.67775 74.3066 5.51775 74.1466C5.35775 73.9866 5.27775 73.8 5.27775 73.5866ZM9.56575 65.0426H6.87775V68.7866H9.56575C10.1418 68.7866 10.6111 68.616 10.9738 68.2746C11.3471 67.9226 11.5338 67.4693 11.5338 66.9146C11.5338 66.36 11.3471 65.912 10.9738 65.5706C10.6111 65.2186 10.1418 65.0426 9.56575 65.0426ZM20.0086 73.6666V69.3306C20.0086 68.744 19.87 68.3226 19.5926 68.0666C19.326 67.8 18.9153 67.6666 18.3606 67.6666C17.9446 67.6666 17.5446 67.7733 17.1606 67.9866C16.7766 68.2 16.4673 68.4666 16.2326 68.7866V73.6666C16.2326 73.8693 16.158 74.04 16.0086 74.1786C15.87 74.3173 15.7046 74.3866 15.5126 74.3866C15.31 74.3866 15.1393 74.3173 15.0006 74.1786C14.862 74.04 14.7926 73.8693 14.7926 73.6666V64.2746C14.7926 64.072 14.862 63.9013 15.0006 63.7626C15.1393 63.624 15.31 63.5546 15.5126 63.5546C15.7046 63.5546 15.87 63.624 16.0086 63.7626C16.158 63.9013 16.2326 64.072 16.2326 64.2746V67.6666C16.5313 67.2933 16.926 66.9893 17.4166 66.7546C17.918 66.5093 18.4353 66.3866 18.9686 66.3866C20.622 66.3866 21.4486 67.208 21.4486 68.8506V73.6666C21.4486 73.8693 21.3793 74.04 21.2406 74.1786C21.102 74.3173 20.9313 74.3866 20.7286 74.3866C20.5366 74.3866 20.366 74.3173 20.2166 74.1786C20.078 74.04 20.0086 73.8693 20.0086 73.6666ZM23.2658 70.4346C23.2658 69.2933 23.6284 68.3333 24.3538 67.5546C25.0791 66.776 26.0178 66.3866 27.1698 66.3866C28.3218 66.3866 29.2604 66.776 29.9858 67.5546C30.7111 68.3333 31.0738 69.2933 31.0738 70.4346C31.0738 71.5866 30.7111 72.552 29.9858 73.3306C29.2604 74.1093 28.3218 74.4986 27.1698 74.4986C26.0178 74.4986 25.0791 74.1093 24.3538 73.3306C23.6284 72.552 23.2658 71.5866 23.2658 70.4346ZM28.9138 72.4186C29.3511 71.8746 29.5698 71.2133 29.5698 70.4346C29.5698 69.656 29.3511 69 28.9138 68.4666C28.4871 67.9333 27.9058 67.6666 27.1698 67.6666C26.4551 67.6666 25.8738 67.9386 25.4258 68.4826C24.9884 69.016 24.7698 69.6666 24.7698 70.4346C24.7698 71.2133 24.9884 71.8746 25.4258 72.4186C25.8631 72.952 26.4444 73.2186 27.1698 73.2186C27.9058 73.2186 28.4871 72.952 28.9138 72.4186ZM39.558 68.8826V73.6666C39.558 73.8693 39.4833 74.04 39.334 74.1786C39.1953 74.3173 39.0247 74.3866 38.822 74.3866C38.63 74.3866 38.4647 74.3173 38.326 74.1786C38.1873 74.04 38.118 73.8693 38.118 73.6666V69.3626C38.118 68.7653 37.9793 68.3333 37.702 68.0666C37.4353 67.8 37.0247 67.6666 36.47 67.6666C36.054 67.6666 35.654 67.7733 35.27 67.9866C34.886 68.2 34.5767 68.4666 34.342 68.7866V73.6666C34.342 73.8693 34.2673 74.04 34.118 74.1786C33.9793 74.3173 33.814 74.3866 33.622 74.3866C33.4193 74.3866 33.2487 74.3173 33.11 74.1786C32.9713 74.04 32.902 73.8693 32.902 73.6666V67.2186C32.902 67.016 32.9713 66.8453 33.11 66.7066C33.2487 66.568 33.414 66.4986 33.606 66.4986C33.8087 66.4986 33.9793 66.568 34.118 66.7066C34.2673 66.8453 34.342 67.016 34.342 67.2186V67.6506C34.6513 67.288 35.0513 66.9893 35.542 66.7546C36.0433 66.5093 36.5553 66.3866 37.078 66.3866C38.7313 66.3866 39.558 67.2186 39.558 68.8826ZM45.2315 66.3866C46.3302 66.3866 47.2315 66.7653 47.9355 67.5226C48.6395 68.2693 48.9915 69.1706 48.9915 70.2266C48.9915 70.44 48.9168 70.6106 48.7675 70.7386C48.6182 70.856 48.4102 70.9146 48.1435 70.9146H42.8795C42.9328 71.608 43.1995 72.184 43.6795 72.6426C44.1595 73.0906 44.7675 73.3146 45.5035 73.3146C46.2075 73.3146 46.8475 73.1066 47.4235 72.6906C47.4982 72.6373 47.6048 72.6106 47.7435 72.6106C47.9035 72.6106 48.0368 72.6693 48.1435 72.7866C48.2608 72.8933 48.3195 73.0266 48.3195 73.1866C48.3195 73.4 48.2342 73.56 48.0635 73.6666C47.3168 74.2213 46.4155 74.4986 45.3595 74.4986C44.1968 74.4986 43.2368 74.12 42.4795 73.3626C41.7328 72.6053 41.3595 71.6293 41.3595 70.4346C41.3382 69.3253 41.7062 68.3706 42.4635 67.5706C43.2208 66.76 44.1435 66.3653 45.2315 66.3866ZM42.8635 69.8746H47.5835C47.5622 69.2666 47.3488 68.7333 46.9435 68.2746C46.5382 67.8053 45.9675 67.5706 45.2315 67.5706C44.5275 67.5706 43.9675 67.8 43.5515 68.2586C43.1462 68.7173 42.9168 69.256 42.8635 69.8746Z" fill="black"/>
<path d="M126.905 154.479V129.845C126.905 128.608 125.903 127.605 124.667 127.605H111.236C110 127.605 108.998 128.608 108.998 129.845V154.479C108.998 155.716 110 156.718 111.236 156.718H124.667C125.903 156.718 126.905 155.716 126.905 154.479Z" stroke="#181824" stroke-width="2.4" stroke-linecap="round" stroke-linejoin="round"/>
<path d="M100.513 190.571C100.513 190.795 100.433 190.987 100.273 191.147C100.113 191.307 99.9207 191.387 99.6967 191.387C99.3234 191.387 99.0727 191.216 98.9447 190.875L98.2727 189.099H92.9767L92.3047 190.875C92.1767 191.216 91.926 191.387 91.5527 191.387C91.3287 191.387 91.1367 191.307 90.9767 191.147C90.8167 190.987 90.7367 190.795 90.7367 190.571C90.7367 190.485 90.758 190.384 90.8007 190.267L94.3207 181.451C94.4167 181.195 94.582 180.981 94.8167 180.811C95.062 180.64 95.3287 180.555 95.6167 180.555C95.9047 180.555 96.166 180.64 96.4007 180.811C96.646 180.971 96.822 181.184 96.9287 181.451L100.449 190.267C100.491 190.363 100.513 190.464 100.513 190.571ZM93.5047 187.675H97.7447L95.6167 182.027L93.5047 187.675ZM108.769 185.883V190.667C108.769 190.869 108.694 191.04 108.545 191.179C108.406 191.317 108.236 191.387 108.033 191.387C107.841 191.387 107.676 191.317 107.537 191.179C107.398 191.04 107.329 190.869 107.329 190.667V186.363C107.329 185.765 107.19 185.333 106.913 185.067C106.646 184.8 106.236 184.667 105.681 184.667C105.265 184.667 104.865 184.773 104.481 184.987C104.097 185.2 103.788 185.467 103.553 185.787V190.667C103.553 190.869 103.478 191.04 103.329 191.179C103.19 191.317 103.025 191.387 102.833 191.387C102.63 191.387 102.46 191.317 102.321 191.179C102.182 191.04 102.113 190.869 102.113 190.667V184.219C102.113 184.016 102.182 183.845 102.321 183.707C102.46 183.568 102.625 183.499 102.817 183.499C103.02 183.499 103.19 183.568 103.329 183.707C103.478 183.845 103.553 184.016 103.553 184.219V184.651C103.862 184.288 104.262 183.989 104.753 183.755C105.254 183.509 105.766 183.387 106.289 183.387C107.942 183.387 108.769 184.219 108.769 185.883ZM117.994 181.275V190.667C117.994 190.869 117.925 191.04 117.786 191.179C117.648 191.317 117.477 191.387 117.274 191.387C117.082 191.387 116.912 191.317 116.762 191.179C116.624 191.04 116.554 190.869 116.554 190.667V190.203C115.925 191.067 115.082 191.499 114.026 191.499C113.002 191.499 112.17 191.136 111.53 190.411C110.89 189.675 110.57 188.688 110.57 187.451C110.57 186.235 110.89 185.253 111.53 184.507C112.181 183.76 113.013 183.387 114.026 183.387C115.072 183.387 115.914 183.824 116.554 184.699V181.275C116.554 181.072 116.624 180.901 116.762 180.763C116.912 180.624 117.082 180.555 117.274 180.555C117.477 180.555 117.648 180.624 117.786 180.763C117.925 180.901 117.994 181.072 117.994 181.275ZM116.554 189.099V185.803C116.352 185.483 116.048 185.216 115.642 185.003C115.237 184.779 114.826 184.667 114.41 184.667C113.706 184.667 113.141 184.923 112.714 185.435C112.288 185.947 112.074 186.619 112.074 187.451C112.074 188.272 112.288 188.939 112.714 189.451C113.141 189.963 113.706 190.219 114.41 190.219C114.837 190.219 115.248 190.112 115.642 189.899C116.048 189.685 116.352 189.419 116.554 189.099ZM124.364 184.139C124.364 184.309 124.3 184.459 124.172 184.587C124.044 184.715 123.858 184.795 123.612 184.827C123.292 184.859 122.935 184.981 122.54 185.195C122.178 185.397 121.911 185.643 121.74 185.931V190.667C121.74 190.869 121.666 191.04 121.516 191.179C121.378 191.317 121.212 191.387 121.02 191.387C120.818 191.387 120.647 191.317 120.508 191.179C120.37 191.04 120.3 190.869 120.3 190.667V184.219C120.3 184.016 120.37 183.845 120.508 183.707C120.647 183.568 120.812 183.499 121.004 183.499C121.207 183.499 121.378 183.568 121.516 183.707C121.666 183.845 121.74 184.016 121.74 184.219V184.763C122.22 184.123 122.754 183.712 123.34 183.531C123.554 183.477 123.692 183.451 123.756 183.451C123.948 183.451 124.098 183.515 124.204 183.643C124.311 183.771 124.364 183.936 124.364 184.139ZM125.227 187.435C125.227 186.293 125.589 185.333 126.315 184.555C127.04 183.776 127.979 183.387 129.131 183.387C130.283 183.387 131.221 183.776 131.947 184.555C132.672 185.333 133.035 186.293 133.035 187.435C133.035 188.587 132.672 189.552 131.947 190.331C131.221 191.109 130.283 191.499 129.131 191.499C127.979 191.499 127.04 191.109 126.315 190.331C125.589 189.552 125.227 188.587 125.227 187.435ZM130.875 189.419C131.312 188.875 131.531 188.213 131.531 187.435C131.531 186.656 131.312 186 130.875 185.467C130.448 184.933 129.867 184.667 129.131 184.667C128.416 184.667 127.835 184.939 127.387 185.483C126.949 186.016 126.731 186.667 126.731 187.435C126.731 188.213 126.949 188.875 127.387 189.419C127.824 189.952 128.405 190.219 129.131 190.219C129.867 190.219 130.448 189.952 130.875 189.419ZM134.911 181.771C134.73 181.589 134.639 181.371 134.639 181.115C134.639 180.859 134.73 180.645 134.911 180.475C135.092 180.293 135.311 180.203 135.567 180.203C135.823 180.203 136.042 180.293 136.223 180.475C136.404 180.645 136.495 180.859 136.495 181.115C136.495 181.371 136.404 181.589 136.223 181.771C136.042 181.952 135.823 182.043 135.567 182.043C135.322 182.043 135.103 181.952 134.911 181.771ZM134.863 190.667V184.219C134.863 184.016 134.932 183.845 135.071 183.707C135.21 183.568 135.38 183.499 135.583 183.499C135.775 183.499 135.94 183.568 136.079 183.707C136.228 183.845 136.303 184.016 136.303 184.219V190.667C136.303 190.869 136.228 191.04 136.079 191.179C135.94 191.317 135.77 191.387 135.567 191.387C135.375 191.387 135.21 191.317 135.071 191.179C134.932 191.04 134.863 190.869 134.863 190.667ZM145.541 181.275V190.667C145.541 190.869 145.472 191.04 145.333 191.179C145.195 191.317 145.024 191.387 144.821 191.387C144.629 191.387 144.459 191.317 144.309 191.179C144.171 191.04 144.101 190.869 144.101 190.667V190.203C143.472 191.067 142.629 191.499 141.573 191.499C140.549 191.499 139.717 191.136 139.077 190.411C138.437 189.675 138.117 188.688 138.117 187.451C138.117 186.235 138.437 185.253 139.077 184.507C139.728 183.76 140.56 183.387 141.573 183.387C142.619 183.387 143.461 183.824 144.101 184.699V181.275C144.101 181.072 144.171 180.901 144.309 180.763C144.459 180.624 144.629 180.555 144.821 180.555C145.024 180.555 145.195 180.624 145.333 180.763C145.472 180.901 145.541 181.072 145.541 181.275ZM144.101 189.099V185.803C143.899 185.483 143.595 185.216 143.189 185.003C142.784 184.779 142.373 184.667 141.957 184.667C141.253 184.667 140.688 184.923 140.261 185.435C139.835 185.947 139.621 186.619 139.621 187.451C139.621 188.272 139.835 188.939 140.261 189.451C140.688 189.963 141.253 190.219 141.957 190.219C142.384 190.219 142.795 190.112 143.189 189.899C143.595 189.685 143.899 189.419 144.101 189.099ZM103.483 200.491C104.123 201.216 104.443 202.197 104.443 203.435C104.443 204.672 104.123 205.659 103.483 206.395C102.853 207.131 102.027 207.499 101.003 207.499C99.9575 207.499 99.1148 207.061 98.4748 206.187V209.611C98.4748 209.813 98.4001 209.984 98.2508 210.123C98.1121 210.261 97.9468 210.331 97.7548 210.331C97.5521 210.331 97.3815 210.261 97.2428 210.123C97.1041 209.984 97.0348 209.813 97.0348 209.611V200.219C97.0348 200.016 97.1041 199.845 97.2428 199.707C97.3815 199.568 97.5521 199.499 97.7548 199.499C97.9468 199.499 98.1121 199.568 98.2508 199.707C98.4001 199.845 98.4748 200.016 98.4748 200.219V200.667C99.1148 199.813 99.9575 199.387 101.003 199.387C102.027 199.387 102.853 199.755 103.483 200.491ZM102.939 203.435C102.939 202.624 102.725 201.963 102.299 201.451C101.872 200.928 101.312 200.667 100.619 200.667C100.203 200.667 99.7868 200.779 99.3708 201.003C98.9655 201.216 98.6668 201.483 98.4748 201.803V205.083C98.6775 205.403 98.9815 205.675 99.3868 205.899C99.7921 206.112 100.203 206.219 100.619 206.219C101.323 206.219 101.883 205.963 102.299 205.451C102.725 204.939 102.939 204.267 102.939 203.435ZM111.485 206.667V202.331C111.485 201.744 111.347 201.323 111.069 201.067C110.803 200.8 110.392 200.667 109.837 200.667C109.421 200.667 109.021 200.773 108.637 200.987C108.253 201.2 107.944 201.467 107.709 201.787V206.667C107.709 206.869 107.635 207.04 107.485 207.179C107.347 207.317 107.181 207.387 106.989 207.387C106.787 207.387 106.616 207.317 106.477 207.179C106.339 207.04 106.269 206.869 106.269 206.667V197.275C106.269 197.072 106.339 196.901 106.477 196.763C106.616 196.624 106.787 196.555 106.989 196.555C107.181 196.555 107.347 196.624 107.485 196.763C107.635 196.901 107.709 197.072 107.709 197.275V200.667C108.008 200.293 108.403 199.989 108.893 199.755C109.395 199.509 109.912 199.387 110.445 199.387C112.099 199.387 112.925 200.208 112.925 201.851V206.667C112.925 206.869 112.856 207.04 112.717 207.179C112.579 207.317 112.408 207.387 112.205 207.387C112.013 207.387 111.843 207.317 111.693 207.179C111.555 207.04 111.485 206.869 111.485 206.667ZM114.742 203.435C114.742 202.293 115.105 201.333 115.83 200.555C116.556 199.776 117.494 199.387 118.646 199.387C119.798 199.387 120.737 199.776 121.462 200.555C122.188 201.333 122.55 202.293 122.55 203.435C122.55 204.587 122.188 205.552 121.462 206.331C120.737 207.109 119.798 207.499 118.646 207.499C117.494 207.499 116.556 207.109 115.83 206.331C115.105 205.552 114.742 204.587 114.742 203.435ZM120.39 205.419C120.828 204.875 121.046 204.213 121.046 203.435C121.046 202.656 120.828 202 120.39 201.467C119.964 200.933 119.382 200.667 118.646 200.667C117.932 200.667 117.35 200.939 116.902 201.483C116.465 202.016 116.246 202.667 116.246 203.435C116.246 204.213 116.465 204.875 116.902 205.419C117.34 205.952 117.921 206.219 118.646 206.219C119.382 206.219 119.964 205.952 120.39 205.419ZM131.035 201.883V206.667C131.035 206.869 130.96 207.04 130.811 207.179C130.672 207.317 130.501 207.387 130.299 207.387C130.107 207.387 129.941 207.317 129.803 207.179C129.664 207.04 129.595 206.869 129.595 206.667V202.363C129.595 201.765 129.456 201.333 129.179 201.067C128.912 200.8 128.501 200.667 127.947 200.667C127.531 200.667 127.131 200.773 126.747 200.987C126.363 201.2 126.053 201.467 125.819 201.787V206.667C125.819 206.869 125.744 207.04 125.595 207.179C125.456 207.317 125.291 207.387 125.099 207.387C124.896 207.387 124.725 207.317 124.587 207.179C124.448 207.04 124.379 206.869 124.379 206.667V200.219C124.379 200.016 124.448 199.845 124.587 199.707C124.725 199.568 124.891 199.499 125.083 199.499C125.285 199.499 125.456 199.568 125.595 199.707C125.744 199.845 125.819 200.016 125.819 200.219V200.651C126.128 200.288 126.528 199.989 127.019 199.755C127.52 199.509 128.032 199.387 128.555 199.387C130.208 199.387 131.035 200.219 131.035 201.883ZM136.708 199.387C137.807 199.387 138.708 199.765 139.412 200.523C140.116 201.269 140.468 202.171 140.468 203.227C140.468 203.44 140.393 203.611 140.244 203.739C140.095 203.856 139.887 203.915 139.62 203.915H134.356C134.409 204.608 134.676 205.184 135.156 205.643C135.636 206.091 136.244 206.315 136.98 206.315C137.684 206.315 138.324 206.107 138.9 205.691C138.975 205.637 139.081 205.611 139.22 205.611C139.38 205.611 139.513 205.669 139.62 205.787C139.737 205.893 139.796 206.027 139.796 206.187C139.796 206.4 139.711 206.56 139.54 206.667C138.793 207.221 137.892 207.499 136.836 207.499C135.673 207.499 134.713 207.12 133.956 206.363C133.209 205.605 132.836 204.629 132.836 203.435C132.815 202.325 133.183 201.371 133.94 200.571C134.697 199.76 135.62 199.365 136.708 199.387ZM134.34 202.875H139.06C139.039 202.267 138.825 201.733 138.42 201.275C138.015 200.805 137.444 200.571 136.708 200.571C136.004 200.571 135.444 200.8 135.028 201.259C134.623 201.717 134.393 202.256 134.34 202.875Z" fill="black"/>
<path d="M131.801 38.5158V11.5039C131.801 10.0121 130.592 8.80273 129.101 8.80273L107.501 8.80273C106.01 8.80273 104.801 10.0121 104.801 11.5039V38.5158C104.801 40.0077 106.01 41.217 107.501 41.217H129.101C130.592 41.217 131.801 40.0077 131.801 38.5158Z" stroke="#181824" stroke-width="2.4" stroke-linecap="round" stroke-linejoin="round"/>
<path d="M112.902 10.6035H123.702" stroke="#181824" stroke-width="2.4" stroke-linecap="round" stroke-linejoin="round"/>
<path d="M104.333 64.7199C104.151 64.5385 104.061 64.3199 104.061 64.0639C104.061 63.8079 104.151 63.5945 104.333 63.4239C104.514 63.2425 104.733 63.1519 104.989 63.1519C105.245 63.1519 105.463 63.2425 105.645 63.4239C105.826 63.5945 105.917 63.8079 105.917 64.0639C105.917 64.3199 105.826 64.5385 105.645 64.7199C105.463 64.9012 105.245 64.9919 104.989 64.9919C104.743 64.9919 104.525 64.9012 104.333 64.7199ZM104.285 73.6159V67.1679C104.285 66.9652 104.354 66.7945 104.493 66.6559C104.631 66.5172 104.802 66.4479 105.005 66.4479C105.197 66.4479 105.362 66.5172 105.501 66.6559C105.65 66.7945 105.725 66.9652 105.725 67.1679V73.6159C105.725 73.8185 105.65 73.9892 105.501 74.1279C105.362 74.2665 105.191 74.3359 104.989 74.3359C104.797 74.3359 104.631 74.2665 104.493 74.1279C104.354 73.9892 104.285 73.8185 104.285 73.6159ZM108.051 73.5359V64.4319C108.051 63.8665 108.339 63.5839 108.915 63.5839H112.547C113.593 63.5839 114.419 63.8985 115.027 64.5279C115.646 65.1465 115.955 65.9252 115.955 66.8639C115.955 67.7919 115.646 68.5705 115.027 69.1999C114.409 69.8292 113.582 70.1439 112.547 70.1439H109.651V73.5359C109.651 73.7492 109.571 73.9359 109.411 74.0959C109.262 74.2559 109.081 74.3359 108.867 74.3359C108.643 74.3359 108.451 74.2559 108.291 74.0959C108.131 73.9359 108.051 73.7492 108.051 73.5359ZM112.339 64.9919H109.651V68.7359H112.339C112.915 68.7359 113.385 68.5652 113.747 68.2239C114.121 67.8719 114.307 67.4185 114.307 66.8639C114.307 66.3092 114.121 65.8612 113.747 65.5199C113.385 65.1679 112.915 64.9919 112.339 64.9919ZM123.462 69.0399V73.6159C123.462 73.8185 123.387 73.9892 123.238 74.1279C123.099 74.2665 122.934 74.3359 122.742 74.3359C122.55 74.3359 122.379 74.2665 122.23 74.1279C122.091 73.9892 122.022 73.8185 122.022 73.6159V73.3919C121.414 74.0959 120.571 74.4479 119.494 74.4479C118.779 74.4479 118.15 74.2185 117.606 73.7599C117.072 73.2905 116.806 72.6665 116.806 71.8879C116.806 71.0879 117.067 70.4692 117.59 70.0319C118.123 69.5839 118.758 69.3599 119.494 69.3599C120.603 69.3599 121.446 69.7012 122.022 70.3839V69.1039C122.022 68.6345 121.851 68.2612 121.51 67.9839C121.168 67.7065 120.71 67.5679 120.134 67.5679C119.44 67.5679 118.806 67.7919 118.23 68.2399C118.123 68.3145 118.006 68.3519 117.878 68.3519C117.718 68.3519 117.579 68.2932 117.462 68.1759C117.355 68.0585 117.302 67.9199 117.302 67.7599C117.302 67.5679 117.382 67.4132 117.542 67.2959C118.342 66.6559 119.28 66.3359 120.358 66.3359C121.318 66.3359 122.075 66.5652 122.63 67.0239C123.184 67.4719 123.462 68.1439 123.462 69.0399ZM122.022 72.5599V71.2479C121.584 70.6612 120.923 70.3679 120.038 70.3679C119.515 70.3679 119.088 70.5119 118.758 70.7999C118.427 71.0772 118.262 71.4452 118.262 71.9039C118.262 72.3625 118.427 72.7359 118.758 73.0239C119.088 73.3012 119.515 73.4399 120.038 73.4399C120.923 73.4399 121.584 73.1465 122.022 72.5599ZM132.713 64.2239V73.6159C132.713 73.8185 132.644 73.9892 132.505 74.1279C132.367 74.2665 132.196 74.3359 131.993 74.3359C131.801 74.3359 131.631 74.2665 131.481 74.1279C131.343 73.9892 131.273 73.8185 131.273 73.6159V73.1519C130.644 74.0159 129.801 74.4479 128.745 74.4479C127.721 74.4479 126.889 74.0852 126.249 73.3599C125.609 72.6239 125.289 71.6372 125.289 70.3999C125.289 69.1839 125.609 68.2025 126.249 67.4559C126.9 66.7092 127.732 66.3359 128.745 66.3359C129.791 66.3359 130.633 66.7732 131.273 67.6479V64.2239C131.273 64.0212 131.343 63.8505 131.481 63.7119C131.631 63.5732 131.801 63.5039 131.993 63.5039C132.196 63.5039 132.367 63.5732 132.505 63.7119C132.644 63.8505 132.713 64.0212 132.713 64.2239ZM131.273 72.0479V68.7519C131.071 68.4319 130.767 68.1652 130.361 67.9519C129.956 67.7279 129.545 67.6159 129.129 67.6159C128.425 67.6159 127.86 67.8719 127.433 68.3839C127.007 68.8959 126.793 69.5679 126.793 70.3999C126.793 71.2212 127.007 71.8879 127.433 72.3999C127.86 72.9119 128.425 73.1679 129.129 73.1679C129.556 73.1679 129.967 73.0612 130.361 72.8479C130.767 72.6345 131.071 72.3679 131.273 72.0479Z" fill="black"/>
<path d="M15 153.928H45C46.6569 153.928 48 152.584 48 150.926V129.918C48 128.26 46.6569 126.916 45 126.916H15C13.3431 126.916 12 128.26 12 129.918V150.926C12 152.584 13.3431 153.928 15 153.928Z" stroke="#181824" stroke-width="2.4" stroke-linecap="round" stroke-linejoin="round"/>
<path d="M36 159.93H24" stroke="#181824" stroke-width="2.4" stroke-linecap="round" stroke-linejoin="round"/>
<path d="M12.5127 190.432C12.5127 190.656 12.4327 190.848 12.2727 191.008C12.1127 191.168 11.9207 191.248 11.6967 191.248C11.3234 191.248 11.0727 191.077 10.9447 190.736L10.2727 188.96H4.97669L4.30469 190.736C4.17669 191.077 3.92602 191.248 3.55269 191.248C3.32869 191.248 3.13669 191.168 2.97669 191.008C2.81669 190.848 2.73669 190.656 2.73669 190.432C2.73669 190.347 2.75802 190.245 2.80069 190.128L6.32069 181.312C6.41669 181.056 6.58202 180.843 6.81669 180.672C7.06202 180.501 7.32869 180.416 7.61669 180.416C7.90469 180.416 8.16602 180.501 8.40069 180.672C8.64602 180.832 8.82202 181.045 8.92869 181.312L12.4487 190.128C12.4914 190.224 12.5127 190.325 12.5127 190.432ZM5.50469 187.536H9.74469L7.61669 181.888L5.50469 187.536ZM20.7689 185.744V190.528C20.7689 190.731 20.6943 190.901 20.5449 191.04C20.4063 191.179 20.2356 191.248 20.0329 191.248C19.8409 191.248 19.6756 191.179 19.5369 191.04C19.3983 190.901 19.3289 190.731 19.3289 190.528V186.224C19.3289 185.627 19.1903 185.195 18.9129 184.928C18.6463 184.661 18.2356 184.528 17.6809 184.528C17.2649 184.528 16.8649 184.635 16.4809 184.848C16.0969 185.061 15.7876 185.328 15.5529 185.648V190.528C15.5529 190.731 15.4783 190.901 15.3289 191.04C15.1903 191.179 15.0249 191.248 14.8329 191.248C14.6303 191.248 14.4596 191.179 14.3209 191.04C14.1823 190.901 14.1129 190.731 14.1129 190.528V184.08C14.1129 183.877 14.1823 183.707 14.3209 183.568C14.4596 183.429 14.6249 183.36 14.8169 183.36C15.0196 183.36 15.1903 183.429 15.3289 183.568C15.4783 183.707 15.5529 183.877 15.5529 184.08V184.512C15.8623 184.149 16.2623 183.851 16.7529 183.616C17.2543 183.371 17.7663 183.248 18.2889 183.248C19.9423 183.248 20.7689 184.08 20.7689 185.744ZM29.9944 181.136V190.528C29.9944 190.731 29.9251 190.901 29.7864 191.04C29.6478 191.179 29.4771 191.248 29.2744 191.248C29.0824 191.248 28.9118 191.179 28.7624 191.04C28.6238 190.901 28.5544 190.731 28.5544 190.528V190.064C27.9251 190.928 27.0824 191.36 26.0264 191.36C25.0024 191.36 24.1704 190.997 23.5304 190.272C22.8904 189.536 22.5704 188.549 22.5704 187.312C22.5704 186.096 22.8904 185.115 23.5304 184.368C24.1811 183.621 25.0131 183.248 26.0264 183.248C27.0718 183.248 27.9144 183.685 28.5544 184.56V181.136C28.5544 180.933 28.6238 180.763 28.7624 180.624C28.9118 180.485 29.0824 180.416 29.2744 180.416C29.4771 180.416 29.6478 180.485 29.7864 180.624C29.9251 180.763 29.9944 180.933 29.9944 181.136ZM28.5544 188.96V185.664C28.3518 185.344 28.0478 185.077 27.6424 184.864C27.2371 184.64 26.8264 184.528 26.4104 184.528C25.7064 184.528 25.1411 184.784 24.7144 185.296C24.2878 185.808 24.0744 186.48 24.0744 187.312C24.0744 188.133 24.2878 188.8 24.7144 189.312C25.1411 189.824 25.7064 190.08 26.4104 190.08C26.8371 190.08 27.2478 189.973 27.6424 189.76C28.0478 189.547 28.3518 189.28 28.5544 188.96ZM36.3644 184C36.3644 184.171 36.3004 184.32 36.1724 184.448C36.0444 184.576 35.8578 184.656 35.6124 184.688C35.2924 184.72 34.9351 184.843 34.5404 185.056C34.1778 185.259 33.9111 185.504 33.7404 185.792V190.528C33.7404 190.731 33.6658 190.901 33.5164 191.04C33.3778 191.179 33.2124 191.248 33.0204 191.248C32.8178 191.248 32.6471 191.179 32.5084 191.04C32.3698 190.901 32.3004 190.731 32.3004 190.528V184.08C32.3004 183.877 32.3698 183.707 32.5084 183.568C32.6471 183.429 32.8124 183.36 33.0044 183.36C33.2071 183.36 33.3778 183.429 33.5164 183.568C33.6658 183.707 33.7404 183.877 33.7404 184.08V184.624C34.2204 183.984 34.7538 183.573 35.3404 183.392C35.5538 183.339 35.6924 183.312 35.7564 183.312C35.9484 183.312 36.0978 183.376 36.2044 183.504C36.3111 183.632 36.3644 183.797 36.3644 184ZM37.2267 187.296C37.2267 186.155 37.5894 185.195 38.3147 184.416C39.04 183.637 39.9787 183.248 41.1307 183.248C42.2827 183.248 43.2214 183.637 43.9467 184.416C44.672 185.195 45.0347 186.155 45.0347 187.296C45.0347 188.448 44.672 189.413 43.9467 190.192C43.2214 190.971 42.2827 191.36 41.1307 191.36C39.9787 191.36 39.04 190.971 38.3147 190.192C37.5894 189.413 37.2267 188.448 37.2267 187.296ZM42.8747 189.28C43.312 188.736 43.5307 188.075 43.5307 187.296C43.5307 186.517 43.312 185.861 42.8747 185.328C42.448 184.795 41.8667 184.528 41.1307 184.528C40.416 184.528 39.8347 184.8 39.3867 185.344C38.9494 185.877 38.7307 186.528 38.7307 187.296C38.7307 188.075 38.9494 188.736 39.3867 189.28C39.824 189.813 40.4054 190.08 41.1307 190.08C41.8667 190.08 42.448 189.813 42.8747 189.28ZM46.9109 181.632C46.7296 181.451 46.6389 181.232 46.6389 180.976C46.6389 180.72 46.7296 180.507 46.9109 180.336C47.0923 180.155 47.3109 180.064 47.5669 180.064C47.8229 180.064 48.0416 180.155 48.2229 180.336C48.4043 180.507 48.4949 180.72 48.4949 180.976C48.4949 181.232 48.4043 181.451 48.2229 181.632C48.0416 181.813 47.8229 181.904 47.5669 181.904C47.3216 181.904 47.1029 181.813 46.9109 181.632ZM46.8629 190.528V184.08C46.8629 183.877 46.9323 183.707 47.0709 183.568C47.2096 183.429 47.3803 183.36 47.5829 183.36C47.7749 183.36 47.9403 183.429 48.0789 183.568C48.2283 183.707 48.3029 183.877 48.3029 184.08V190.528C48.3029 190.731 48.2283 190.901 48.0789 191.04C47.9403 191.179 47.7696 191.248 47.5669 191.248C47.3749 191.248 47.2096 191.179 47.0709 191.04C46.9323 190.901 46.8629 190.731 46.8629 190.528ZM57.5413 181.136V190.528C57.5413 190.731 57.472 190.901 57.3333 191.04C57.1946 191.179 57.024 191.248 56.8213 191.248C56.6293 191.248 56.4586 191.179 56.3093 191.04C56.1706 190.901 56.1013 190.731 56.1013 190.528V190.064C55.472 190.928 54.6293 191.36 53.5733 191.36C52.5493 191.36 51.7173 190.997 51.0773 190.272C50.4373 189.536 50.1173 188.549 50.1173 187.312C50.1173 186.096 50.4373 185.115 51.0773 184.368C51.728 183.621 52.56 183.248 53.5733 183.248C54.6186 183.248 55.4613 183.685 56.1013 184.56V181.136C56.1013 180.933 56.1706 180.763 56.3093 180.624C56.4586 180.485 56.6293 180.416 56.8213 180.416C57.024 180.416 57.1946 180.485 57.3333 180.624C57.472 180.763 57.5413 180.933 57.5413 181.136ZM56.1013 188.96V185.664C55.8986 185.344 55.5946 185.077 55.1893 184.864C54.784 184.64 54.3733 184.528 53.9573 184.528C53.2533 184.528 52.688 184.784 52.2613 185.296C51.8346 185.808 51.6213 186.48 51.6213 187.312C51.6213 188.133 51.8346 188.8 52.2613 189.312C52.688 189.824 53.2533 190.08 53.9573 190.08C54.384 190.08 54.7946 189.973 55.1893 189.76C55.5946 189.547 55.8986 189.28 56.1013 188.96ZM24.3779 206.448V197.904H21.6899C21.4979 197.904 21.3326 197.84 21.1939 197.712C21.0553 197.573 20.9859 197.408 20.9859 197.216C20.9859 197.013 21.0553 196.843 21.1939 196.704C21.3326 196.565 21.4979 196.496 21.6899 196.496H28.6499C28.8419 196.496 29.0073 196.565 29.1459 196.704C29.2953 196.843 29.3699 197.013 29.3699 197.216C29.3699 197.408 29.2953 197.573 29.1459 197.712C29.0073 197.84 28.8419 197.904 28.6499 197.904H25.9779V206.448C25.9779 206.661 25.8979 206.848 25.7379 207.008C25.5779 207.168 25.3913 207.248 25.1779 207.248C24.9539 207.248 24.7619 207.168 24.6019 207.008C24.4526 206.848 24.3779 206.661 24.3779 206.448ZM33.7578 206.352L30.2698 197.568C30.2165 197.44 30.1898 197.339 30.1898 197.264C30.1898 197.029 30.2698 196.832 30.4298 196.672C30.6005 196.501 30.8031 196.416 31.0378 196.416C31.4218 196.416 31.6885 196.597 31.8378 196.96L35.0698 205.424L38.3178 196.96C38.3711 196.8 38.4725 196.672 38.6218 196.576C38.7711 196.469 38.9311 196.416 39.1018 196.416C39.3365 196.416 39.5338 196.501 39.6938 196.672C39.8645 196.832 39.9498 197.029 39.9498 197.264C39.9498 197.392 39.9285 197.493 39.8858 197.568L36.3978 206.352C36.2911 206.619 36.1151 206.837 35.8698 207.008C35.6351 207.168 35.3685 207.248 35.0698 207.248C34.7818 207.248 34.5151 207.168 34.2698 207.008C34.0351 206.837 33.8645 206.619 33.7578 206.352Z" fill="black"/>
<path d="M292.5 150.928V131.419C292.5 130.623 292.816 129.86 293.379 129.297C293.941 128.734 294.704 128.418 295.5 128.418H322.5C323.296 128.418 324.059 128.734 324.621 129.297C325.184 129.86 325.5 130.623 325.5 131.419V150.928" stroke="#181824" stroke-width="2.4" stroke-linecap="round" stroke-linejoin="round"/>
<path d="M292.5 150.926H325.5V153.926C325.5 154.721 325.233 155.484 324.757 156.047C324.28 156.61 323.635 156.926 322.962 156.926H295.038C294.365 156.926 293.72 156.61 293.243 156.047C292.767 155.484 292.5 154.721 292.5 153.926V150.926Z" stroke="#181824" stroke-width="2.4" stroke-linecap="round" stroke-linejoin="round"/>
<path d="M312 130.217H306" stroke="#181824" stroke-width="2.4" stroke-linecap="round" stroke-linejoin="round"/>
<path d="M290.317 190.32V181.216C290.317 181.003 290.397 180.816 290.557 180.656C290.717 180.496 290.909 180.416 291.133 180.416C291.346 180.416 291.527 180.496 291.677 180.656C291.837 180.816 291.917 181.003 291.917 181.216V189.76H296.125C296.317 189.76 296.482 189.829 296.621 189.968C296.77 190.096 296.845 190.256 296.845 190.448C296.845 190.651 296.77 190.821 296.621 190.96C296.482 191.099 296.317 191.168 296.125 191.168H291.181C290.605 191.168 290.317 190.885 290.317 190.32ZM301.599 183.248C302.697 183.248 303.599 183.627 304.303 184.384C305.007 185.131 305.359 186.032 305.359 187.088C305.359 187.301 305.284 187.472 305.135 187.6C304.985 187.717 304.777 187.776 304.511 187.776H299.247C299.3 188.469 299.567 189.045 300.047 189.504C300.527 189.952 301.135 190.176 301.871 190.176C302.575 190.176 303.215 189.968 303.791 189.552C303.865 189.499 303.972 189.472 304.111 189.472C304.271 189.472 304.404 189.531 304.511 189.648C304.628 189.755 304.687 189.888 304.687 190.048C304.687 190.261 304.601 190.421 304.431 190.528C303.684 191.083 302.783 191.36 301.727 191.36C300.564 191.36 299.604 190.981 298.847 190.224C298.1 189.467 297.727 188.491 297.727 187.296C297.705 186.187 298.073 185.232 298.831 184.432C299.588 183.621 300.511 183.227 301.599 183.248ZM299.231 186.736H303.951C303.929 186.128 303.716 185.595 303.311 185.136C302.905 184.667 302.335 184.432 301.599 184.432C300.895 184.432 300.335 184.661 299.919 185.12C299.513 185.579 299.284 186.117 299.231 186.736ZM313.368 185.952V190.528C313.368 190.731 313.293 190.901 313.144 191.04C313.005 191.179 312.84 191.248 312.648 191.248C312.456 191.248 312.285 191.179 312.136 191.04C311.997 190.901 311.928 190.731 311.928 190.528V190.304C311.32 191.008 310.477 191.36 309.4 191.36C308.685 191.36 308.056 191.131 307.512 190.672C306.978 190.203 306.712 189.579 306.712 188.8C306.712 188 306.973 187.381 307.496 186.944C308.029 186.496 308.664 186.272 309.4 186.272C310.509 186.272 311.352 186.613 311.928 187.296V186.016C311.928 185.547 311.757 185.173 311.416 184.896C311.074 184.619 310.616 184.48 310.04 184.48C309.346 184.48 308.712 184.704 308.136 185.152C308.029 185.227 307.912 185.264 307.784 185.264C307.624 185.264 307.485 185.205 307.368 185.088C307.261 184.971 307.208 184.832 307.208 184.672C307.208 184.48 307.288 184.325 307.448 184.208C308.248 183.568 309.186 183.248 310.264 183.248C311.224 183.248 311.981 183.477 312.536 183.936C313.09 184.384 313.368 185.056 313.368 185.952ZM311.928 189.472V188.16C311.49 187.573 310.829 187.28 309.944 187.28C309.421 187.28 308.994 187.424 308.664 187.712C308.333 187.989 308.168 188.357 308.168 188.816C308.168 189.275 308.333 189.648 308.664 189.936C308.994 190.213 309.421 190.352 309.944 190.352C310.829 190.352 311.49 190.059 311.928 189.472ZM319.739 184C319.739 184.171 319.675 184.32 319.547 184.448C319.419 184.576 319.233 184.656 318.987 184.688C318.667 184.72 318.31 184.843 317.915 185.056C317.553 185.259 317.286 185.504 317.115 185.792V190.528C317.115 190.731 317.041 190.901 316.891 191.04C316.753 191.179 316.587 191.248 316.395 191.248C316.193 191.248 316.022 191.179 315.883 191.04C315.745 190.901 315.675 190.731 315.675 190.528V184.08C315.675 183.877 315.745 183.707 315.883 183.568C316.022 183.429 316.187 183.36 316.379 183.36C316.582 183.36 316.753 183.429 316.891 183.568C317.041 183.707 317.115 183.877 317.115 184.08V184.624C317.595 183.984 318.129 183.573 318.715 183.392C318.929 183.339 319.067 183.312 319.131 183.312C319.323 183.312 319.473 183.376 319.579 183.504C319.686 183.632 319.739 183.797 319.739 184ZM327.738 185.744V190.528C327.738 190.731 327.663 190.901 327.514 191.04C327.375 191.179 327.204 191.248 327.002 191.248C326.81 191.248 326.644 191.179 326.506 191.04C326.367 190.901 326.298 190.731 326.298 190.528V186.224C326.298 185.627 326.159 185.195 325.882 184.928C325.615 184.661 325.204 184.528 324.65 184.528C324.234 184.528 323.834 184.635 323.45 184.848C323.066 185.061 322.756 185.328 322.522 185.648V190.528C322.522 190.731 322.447 190.901 322.298 191.04C322.159 191.179 321.994 191.248 321.802 191.248C321.599 191.248 321.428 191.179 321.29 191.04C321.151 190.901 321.082 190.731 321.082 190.528V184.08C321.082 183.877 321.151 183.707 321.29 183.568C321.428 183.429 321.594 183.36 321.786 183.36C321.988 183.36 322.159 183.429 322.298 183.568C322.447 183.707 322.522 183.877 322.522 184.08V184.512C322.831 184.149 323.231 183.851 323.722 183.616C324.223 183.371 324.735 183.248 325.258 183.248C326.911 183.248 327.738 184.08 327.738 185.744ZM285.064 205.52C285.064 205.307 285.138 205.125 285.288 204.976C285.448 204.827 285.629 204.752 285.832 204.752C286.013 204.752 286.173 204.805 286.312 204.912C287.154 205.595 288.098 205.936 289.144 205.936C289.901 205.936 290.477 205.781 290.872 205.472C291.277 205.163 291.48 204.768 291.48 204.288C291.437 203.776 291.234 203.413 290.872 203.2C290.52 202.987 289.864 202.752 288.904 202.496C288.072 202.272 287.432 202.075 286.984 201.904C285.8 201.413 285.208 200.571 285.208 199.376C285.208 198.491 285.57 197.765 286.296 197.2C287.021 196.624 287.96 196.336 289.112 196.336C290.317 196.336 291.416 196.683 292.408 197.376C292.632 197.525 292.744 197.728 292.744 197.984C292.744 198.197 292.669 198.379 292.52 198.528C292.37 198.677 292.194 198.752 291.992 198.752C291.842 198.752 291.693 198.704 291.544 198.608C290.84 198.043 289.986 197.76 288.984 197.76C288.344 197.76 287.826 197.899 287.432 198.176C287.048 198.453 286.856 198.816 286.856 199.264C286.888 199.701 287.08 200.021 287.432 200.224C287.794 200.427 288.429 200.64 289.336 200.864C290.082 201.056 290.733 201.269 291.288 201.504C292.504 201.984 293.112 202.864 293.112 204.144C293.112 205.072 292.77 205.84 292.088 206.448C291.405 207.056 290.402 207.36 289.08 207.36C287.608 207.36 286.37 206.949 285.368 206.128C285.165 205.957 285.064 205.755 285.064 205.52ZM298.283 206.592C298.283 206.869 298.161 207.051 297.915 207.136C297.585 207.285 297.217 207.36 296.811 207.36C296.203 207.36 295.745 207.195 295.435 206.864C295.126 206.533 294.971 206.064 294.971 205.456V200.704H294.235C294.065 200.704 293.915 200.64 293.787 200.512C293.659 200.384 293.595 200.235 293.595 200.064C293.595 199.893 293.659 199.749 293.787 199.632C293.915 199.504 294.065 199.44 294.235 199.44H294.971V197.968C294.971 197.765 295.041 197.595 295.179 197.456C295.318 197.317 295.489 197.248 295.691 197.248C295.883 197.248 296.049 197.317 296.187 197.456C296.337 197.595 296.411 197.765 296.411 197.968V199.44H297.419C297.59 199.44 297.739 199.504 297.867 199.632C297.995 199.749 298.059 199.893 298.059 200.064C298.059 200.235 297.995 200.384 297.867 200.512C297.75 200.64 297.601 200.704 297.419 200.704H296.411V205.136C296.411 205.424 296.475 205.653 296.603 205.824C296.731 205.995 296.918 206.08 297.163 206.08C297.249 206.08 297.35 206.064 297.467 206.032C297.595 206 297.665 205.984 297.675 205.984C297.857 205.984 298.001 206.043 298.107 206.16C298.225 206.267 298.283 206.411 298.283 206.592ZM305.782 201.952V206.528C305.782 206.731 305.707 206.901 305.558 207.04C305.419 207.179 305.254 207.248 305.062 207.248C304.87 207.248 304.699 207.179 304.55 207.04C304.411 206.901 304.342 206.731 304.342 206.528V206.304C303.734 207.008 302.891 207.36 301.814 207.36C301.099 207.36 300.47 207.131 299.926 206.672C299.393 206.203 299.126 205.579 299.126 204.8C299.126 204 299.387 203.381 299.91 202.944C300.443 202.496 301.078 202.272 301.814 202.272C302.923 202.272 303.766 202.613 304.342 203.296V202.016C304.342 201.547 304.171 201.173 303.83 200.896C303.489 200.619 303.03 200.48 302.454 200.48C301.761 200.48 301.126 200.704 300.55 201.152C300.443 201.227 300.326 201.264 300.198 201.264C300.038 201.264 299.899 201.205 299.782 201.088C299.675 200.971 299.622 200.832 299.622 200.672C299.622 200.48 299.702 200.325 299.862 200.208C300.662 199.568 301.601 199.248 302.678 199.248C303.638 199.248 304.395 199.477 304.95 199.936C305.505 200.384 305.782 201.056 305.782 201.952ZM304.342 205.472V204.16C303.905 203.573 303.243 203.28 302.358 203.28C301.835 203.28 301.409 203.424 301.078 203.712C300.747 203.989 300.582 204.357 300.582 204.816C300.582 205.275 300.747 205.648 301.078 205.936C301.409 206.213 301.835 206.352 302.358 206.352C303.243 206.352 303.905 206.059 304.342 205.472ZM311.69 206.592C311.69 206.869 311.567 207.051 311.322 207.136C310.991 207.285 310.623 207.36 310.218 207.36C309.61 207.36 309.151 207.195 308.842 206.864C308.532 206.533 308.378 206.064 308.378 205.456V200.704H307.642C307.471 200.704 307.322 200.64 307.194 200.512C307.066 200.384 307.002 200.235 307.002 200.064C307.002 199.893 307.066 199.749 307.194 199.632C307.322 199.504 307.471 199.44 307.642 199.44H308.378V197.968C308.378 197.765 308.447 197.595 308.586 197.456C308.724 197.317 308.895 197.248 309.098 197.248C309.29 197.248 309.455 197.317 309.594 197.456C309.743 197.595 309.818 197.765 309.818 197.968V199.44H310.826C310.996 199.44 311.146 199.504 311.274 199.632C311.402 199.749 311.466 199.893 311.466 200.064C311.466 200.235 311.402 200.384 311.274 200.512C311.156 200.64 311.007 200.704 310.826 200.704H309.818V205.136C309.818 205.424 309.882 205.653 310.01 205.824C310.138 205.995 310.324 206.08 310.57 206.08C310.655 206.08 310.756 206.064 310.874 206.032C311.002 206 311.071 205.984 311.082 205.984C311.263 205.984 311.407 206.043 311.514 206.16C311.631 206.267 311.69 206.411 311.69 206.592ZM313.028 197.632C312.847 197.451 312.756 197.232 312.756 196.976C312.756 196.72 312.847 196.507 313.028 196.336C313.209 196.155 313.428 196.064 313.684 196.064C313.94 196.064 314.159 196.155 314.34 196.336C314.521 196.507 314.612 196.72 314.612 196.976C314.612 197.232 314.521 197.451 314.34 197.632C314.159 197.813 313.94 197.904 313.684 197.904C313.439 197.904 313.22 197.813 313.028 197.632ZM312.98 206.528V200.08C312.98 199.877 313.049 199.707 313.188 199.568C313.327 199.429 313.497 199.36 313.7 199.36C313.892 199.36 314.057 199.429 314.196 199.568C314.345 199.707 314.42 199.877 314.42 200.08V206.528C314.42 206.731 314.345 206.901 314.196 207.04C314.057 207.179 313.887 207.248 313.684 207.248C313.492 207.248 313.327 207.179 313.188 207.04C313.049 206.901 312.98 206.731 312.98 206.528ZM316.235 203.296C316.235 202.155 316.597 201.195 317.323 200.416C318.048 199.637 318.987 199.248 320.139 199.248C321.291 199.248 322.229 199.637 322.955 200.416C323.68 201.195 324.043 202.155 324.043 203.296C324.043 204.448 323.68 205.413 322.955 206.192C322.229 206.971 321.291 207.36 320.139 207.36C318.987 207.36 318.048 206.971 317.323 206.192C316.597 205.413 316.235 204.448 316.235 203.296ZM321.883 205.28C322.32 204.736 322.539 204.075 322.539 203.296C322.539 202.517 322.32 201.861 321.883 201.328C321.456 200.795 320.875 200.528 320.139 200.528C319.424 200.528 318.843 200.8 318.395 201.344C317.957 201.877 317.739 202.528 317.739 203.296C317.739 204.075 317.957 204.736 318.395 205.28C318.832 205.813 319.413 206.08 320.139 206.08C320.875 206.08 321.456 205.813 321.883 205.28ZM332.527 201.744V206.528C332.527 206.731 332.452 206.901 332.303 207.04C332.164 207.179 331.993 207.248 331.791 207.248C331.599 207.248 331.433 207.179 331.295 207.04C331.156 206.901 331.087 206.731 331.087 206.528V202.224C331.087 201.627 330.948 201.195 330.671 200.928C330.404 200.661 329.993 200.528 329.439 200.528C329.023 200.528 328.623 200.635 328.239 200.848C327.855 201.061 327.545 201.328 327.311 201.648V206.528C327.311 206.731 327.236 206.901 327.087 207.04C326.948 207.179 326.783 207.248 326.591 207.248C326.388 207.248 326.217 207.179 326.079 207.04C325.94 206.901 325.871 206.731 325.871 206.528V200.08C325.871 199.877 325.94 199.707 326.079 199.568C326.217 199.429 326.383 199.36 326.575 199.36C326.777 199.36 326.948 199.429 327.087 199.568C327.236 199.707 327.311 199.877 327.311 200.08V200.512C327.62 200.149 328.02 199.851 328.511 199.616C329.012 199.371 329.524 199.248 330.047 199.248C331.7 199.248 332.527 200.08 332.527 201.744Z" fill="black"/>
<path d="M229.801 155.516V128.504C229.801 127.012 228.592 125.803 227.101 125.803H205.501C204.01 125.803 202.801 127.012 202.801 128.504V155.516C202.801 157.008 204.01 158.217 205.501 158.217H227.101C228.592 158.217 229.801 157.008 229.801 155.516Z" stroke="#181824" stroke-width="2.4" stroke-linecap="round" stroke-linejoin="round"/>
<path d="M198.513 190.52C198.513 190.744 198.433 190.936 198.273 191.096C198.113 191.256 197.921 191.336 197.697 191.336C197.323 191.336 197.073 191.165 196.945 190.824L196.273 189.048H190.977L190.305 190.824C190.177 191.165 189.926 191.336 189.553 191.336C189.329 191.336 189.137 191.256 188.977 191.096C188.817 190.936 188.737 190.744 188.737 190.52C188.737 190.435 188.758 190.333 188.801 190.216L192.321 181.4C192.417 181.144 192.582 180.931 192.817 180.76C193.062 180.589 193.329 180.504 193.617 180.504C193.905 180.504 194.166 180.589 194.401 180.76C194.646 180.92 194.822 181.133 194.929 181.4L198.449 190.216C198.491 190.312 198.513 190.413 198.513 190.52ZM191.505 187.624H195.745L193.617 181.976L191.505 187.624ZM206.769 185.832V190.616C206.769 190.819 206.694 190.989 206.545 191.128C206.406 191.267 206.236 191.336 206.033 191.336C205.841 191.336 205.676 191.267 205.537 191.128C205.398 190.989 205.329 190.819 205.329 190.616V186.312C205.329 185.715 205.19 185.283 204.913 185.016C204.646 184.749 204.236 184.616 203.681 184.616C203.265 184.616 202.865 184.723 202.481 184.936C202.097 185.149 201.788 185.416 201.553 185.736V190.616C201.553 190.819 201.478 190.989 201.329 191.128C201.19 191.267 201.025 191.336 200.833 191.336C200.63 191.336 200.46 191.267 200.321 191.128C200.182 190.989 200.113 190.819 200.113 190.616V184.168C200.113 183.965 200.182 183.795 200.321 183.656C200.46 183.517 200.625 183.448 200.817 183.448C201.02 183.448 201.19 183.517 201.329 183.656C201.478 183.795 201.553 183.965 201.553 184.168V184.6C201.862 184.237 202.262 183.939 202.753 183.704C203.254 183.459 203.766 183.336 204.289 183.336C205.942 183.336 206.769 184.168 206.769 185.832ZM215.994 181.224V190.616C215.994 190.819 215.925 190.989 215.786 191.128C215.648 191.267 215.477 191.336 215.274 191.336C215.082 191.336 214.912 191.267 214.762 191.128C214.624 190.989 214.554 190.819 214.554 190.616V190.152C213.925 191.016 213.082 191.448 212.026 191.448C211.002 191.448 210.17 191.085 209.53 190.36C208.89 189.624 208.57 188.637 208.57 187.4C208.57 186.184 208.89 185.203 209.53 184.456C210.181 183.709 211.013 183.336 212.026 183.336C213.072 183.336 213.914 183.773 214.554 184.648V181.224C214.554 181.021 214.624 180.851 214.762 180.712C214.912 180.573 215.082 180.504 215.274 180.504C215.477 180.504 215.648 180.573 215.786 180.712C215.925 180.851 215.994 181.021 215.994 181.224ZM214.554 189.048V185.752C214.352 185.432 214.048 185.165 213.642 184.952C213.237 184.728 212.826 184.616 212.41 184.616C211.706 184.616 211.141 184.872 210.714 185.384C210.288 185.896 210.074 186.568 210.074 187.4C210.074 188.221 210.288 188.888 210.714 189.4C211.141 189.912 211.706 190.168 212.41 190.168C212.837 190.168 213.248 190.061 213.642 189.848C214.048 189.635 214.352 189.368 214.554 189.048ZM222.364 184.088C222.364 184.259 222.3 184.408 222.172 184.536C222.044 184.664 221.858 184.744 221.612 184.776C221.292 184.808 220.935 184.931 220.54 185.144C220.178 185.347 219.911 185.592 219.74 185.88V190.616C219.74 190.819 219.666 190.989 219.516 191.128C219.378 191.267 219.212 191.336 219.02 191.336C218.818 191.336 218.647 191.267 218.508 191.128C218.37 190.989 218.3 190.819 218.3 190.616V184.168C218.3 183.965 218.37 183.795 218.508 183.656C218.647 183.517 218.812 183.448 219.004 183.448C219.207 183.448 219.378 183.517 219.516 183.656C219.666 183.795 219.74 183.965 219.74 184.168V184.712C220.22 184.072 220.754 183.661 221.34 183.48C221.554 183.427 221.692 183.4 221.756 183.4C221.948 183.4 222.098 183.464 222.204 183.592C222.311 183.72 222.364 183.885 222.364 184.088ZM223.227 187.384C223.227 186.243 223.589 185.283 224.315 184.504C225.04 183.725 225.979 183.336 227.131 183.336C228.283 183.336 229.221 183.725 229.947 184.504C230.672 185.283 231.035 186.243 231.035 187.384C231.035 188.536 230.672 189.501 229.947 190.28C229.221 191.059 228.283 191.448 227.131 191.448C225.979 191.448 225.04 191.059 224.315 190.28C223.589 189.501 223.227 188.536 223.227 187.384ZM228.875 189.368C229.312 188.824 229.531 188.163 229.531 187.384C229.531 186.605 229.312 185.949 228.875 185.416C228.448 184.883 227.867 184.616 227.131 184.616C226.416 184.616 225.835 184.888 225.387 185.432C224.949 185.965 224.731 186.616 224.731 187.384C224.731 188.163 224.949 188.824 225.387 189.368C225.824 189.901 226.405 190.168 227.131 190.168C227.867 190.168 228.448 189.901 228.875 189.368ZM232.911 181.72C232.73 181.539 232.639 181.32 232.639 181.064C232.639 180.808 232.73 180.595 232.911 180.424C233.092 180.243 233.311 180.152 233.567 180.152C233.823 180.152 234.042 180.243 234.223 180.424C234.404 180.595 234.495 180.808 234.495 181.064C234.495 181.32 234.404 181.539 234.223 181.72C234.042 181.901 233.823 181.992 233.567 181.992C233.322 181.992 233.103 181.901 232.911 181.72ZM232.863 190.616V184.168C232.863 183.965 232.932 183.795 233.071 183.656C233.21 183.517 233.38 183.448 233.583 183.448C233.775 183.448 233.94 183.517 234.079 183.656C234.228 183.795 234.303 183.965 234.303 184.168V190.616C234.303 190.819 234.228 190.989 234.079 191.128C233.94 191.267 233.77 191.336 233.567 191.336C233.375 191.336 233.21 191.267 233.071 191.128C232.932 190.989 232.863 190.819 232.863 190.616ZM243.541 181.224V190.616C243.541 190.819 243.472 190.989 243.333 191.128C243.195 191.267 243.024 191.336 242.821 191.336C242.629 191.336 242.459 191.267 242.309 191.128C242.171 190.989 242.101 190.819 242.101 190.616V190.152C241.472 191.016 240.629 191.448 239.573 191.448C238.549 191.448 237.717 191.085 237.077 190.36C236.437 189.624 236.117 188.637 236.117 187.4C236.117 186.184 236.437 185.203 237.077 184.456C237.728 183.709 238.56 183.336 239.573 183.336C240.619 183.336 241.461 183.773 242.101 184.648V181.224C242.101 181.021 242.171 180.851 242.309 180.712C242.459 180.573 242.629 180.504 242.821 180.504C243.024 180.504 243.195 180.573 243.333 180.712C243.472 180.851 243.541 181.021 243.541 181.224ZM242.101 189.048V185.752C241.899 185.432 241.595 185.165 241.189 184.952C240.784 184.728 240.373 184.616 239.957 184.616C239.253 184.616 238.688 184.872 238.261 185.384C237.835 185.896 237.621 186.568 237.621 187.4C237.621 188.221 237.835 188.888 238.261 189.4C238.688 189.912 239.253 190.168 239.957 190.168C240.384 190.168 240.795 190.061 241.189 189.848C241.595 189.635 241.899 189.368 242.101 189.048ZM201.135 206.68C201.135 206.957 201.012 207.139 200.767 207.224C200.436 207.373 200.068 207.448 199.663 207.448C199.055 207.448 198.596 207.283 198.287 206.952C197.977 206.621 197.823 206.152 197.823 205.544V200.792H197.087C196.916 200.792 196.767 200.728 196.639 200.6C196.511 200.472 196.447 200.323 196.447 200.152C196.447 199.981 196.511 199.837 196.639 199.72C196.767 199.592 196.916 199.528 197.087 199.528H197.823V198.056C197.823 197.853 197.892 197.683 198.031 197.544C198.169 197.405 198.34 197.336 198.543 197.336C198.735 197.336 198.9 197.405 199.039 197.544C199.188 197.683 199.263 197.853 199.263 198.056V199.528H200.271C200.441 199.528 200.591 199.592 200.719 199.72C200.847 199.837 200.911 199.981 200.911 200.152C200.911 200.323 200.847 200.472 200.719 200.6C200.601 200.728 200.452 200.792 200.271 200.792H199.263V205.224C199.263 205.512 199.327 205.741 199.455 205.912C199.583 206.083 199.769 206.168 200.015 206.168C200.1 206.168 200.201 206.152 200.319 206.12C200.447 206.088 200.516 206.072 200.527 206.072C200.708 206.072 200.852 206.131 200.959 206.248C201.076 206.355 201.135 206.499 201.135 206.68ZM208.633 202.04V206.616C208.633 206.819 208.559 206.989 208.409 207.128C208.271 207.267 208.105 207.336 207.913 207.336C207.721 207.336 207.551 207.267 207.401 207.128C207.263 206.989 207.193 206.819 207.193 206.616V206.392C206.585 207.096 205.743 207.448 204.665 207.448C203.951 207.448 203.321 207.219 202.777 206.76C202.244 206.291 201.977 205.667 201.977 204.888C201.977 204.088 202.239 203.469 202.761 203.032C203.295 202.584 203.929 202.36 204.665 202.36C205.775 202.36 206.617 202.701 207.193 203.384V202.104C207.193 201.635 207.023 201.261 206.681 200.984C206.34 200.707 205.881 200.568 205.305 200.568C204.612 200.568 203.977 200.792 203.401 201.24C203.295 201.315 203.177 201.352 203.049 201.352C202.889 201.352 202.751 201.293 202.633 201.176C202.527 201.059 202.473 200.92 202.473 200.76C202.473 200.568 202.553 200.413 202.713 200.296C203.513 199.656 204.452 199.336 205.529 199.336C206.489 199.336 207.247 199.565 207.801 200.024C208.356 200.472 208.633 201.144 208.633 202.04ZM207.193 205.56V204.248C206.756 203.661 206.095 203.368 205.209 203.368C204.687 203.368 204.26 203.512 203.929 203.8C203.599 204.077 203.433 204.445 203.433 204.904C203.433 205.363 203.599 205.736 203.929 206.024C204.26 206.301 204.687 206.44 205.209 206.44C206.095 206.44 206.756 206.147 207.193 205.56ZM218.349 203.4C218.349 204.637 218.029 205.624 217.389 206.36C216.76 207.085 215.933 207.448 214.909 207.448C213.885 207.448 213.042 207.016 212.381 206.152V206.616C212.381 206.819 212.306 206.989 212.157 207.128C212.018 207.267 211.853 207.336 211.661 207.336C211.458 207.336 211.288 207.267 211.149 207.128C211.01 206.989 210.941 206.819 210.941 206.616V197.224C210.941 197.021 211.01 196.851 211.149 196.712C211.288 196.573 211.458 196.504 211.661 196.504C211.853 196.504 212.018 196.573 212.157 196.712C212.306 196.851 212.381 197.021 212.381 197.224V200.632C213 199.768 213.842 199.336 214.909 199.336C215.922 199.336 216.749 199.709 217.389 200.456C218.029 201.203 218.349 202.184 218.349 203.4ZM216.221 205.416C216.648 204.904 216.861 204.232 216.861 203.4C216.861 202.568 216.648 201.896 216.221 201.384C215.794 200.872 215.229 200.616 214.525 200.616C214.109 200.616 213.698 200.728 213.293 200.952C212.888 201.165 212.584 201.437 212.381 201.768V205.048C212.573 205.368 212.872 205.635 213.277 205.848C213.682 206.061 214.098 206.168 214.525 206.168C215.229 206.168 215.794 205.917 216.221 205.416ZM220.191 206.616V197.224C220.191 197.021 220.26 196.851 220.399 196.712C220.538 196.573 220.708 196.504 220.911 196.504C221.103 196.504 221.268 196.573 221.407 196.712C221.556 196.851 221.631 197.021 221.631 197.224V206.616C221.631 206.819 221.556 206.989 221.407 207.128C221.268 207.267 221.103 207.336 220.911 207.336C220.708 207.336 220.538 207.267 220.399 207.128C220.26 206.989 220.191 206.819 220.191 206.616ZM227.317 199.336C228.416 199.336 229.317 199.715 230.021 200.472C230.725 201.219 231.077 202.12 231.077 203.176C231.077 203.389 231.003 203.56 230.853 203.688C230.704 203.805 230.496 203.864 230.229 203.864H224.965C225.019 204.557 225.285 205.133 225.765 205.592C226.245 206.04 226.853 206.264 227.589 206.264C228.293 206.264 228.933 206.056 229.509 205.64C229.584 205.587 229.691 205.56 229.829 205.56C229.989 205.56 230.123 205.619 230.229 205.736C230.347 205.843 230.405 205.976 230.405 206.136C230.405 206.349 230.32 206.509 230.149 206.616C229.403 207.171 228.501 207.448 227.445 207.448C226.283 207.448 225.323 207.069 224.565 206.312C223.819 205.555 223.445 204.579 223.445 203.384C223.424 202.275 223.792 201.32 224.549 200.52C225.307 199.709 226.229 199.315 227.317 199.336ZM224.949 202.824H229.669C229.648 202.216 229.435 201.683 229.029 201.224C228.624 200.755 228.053 200.52 227.317 200.52C226.613 200.52 226.053 200.749 225.637 201.208C225.232 201.667 225.003 202.205 224.949 202.824ZM236.479 206.68C236.479 206.957 236.356 207.139 236.111 207.224C235.78 207.373 235.412 207.448 235.007 207.448C234.399 207.448 233.94 207.283 233.631 206.952C233.321 206.621 233.167 206.152 233.167 205.544V200.792H232.431C232.26 200.792 232.111 200.728 231.983 200.6C231.855 200.472 231.791 200.323 231.791 200.152C231.791 199.981 231.855 199.837 231.983 199.72C232.111 199.592 232.26 199.528 232.431 199.528H233.167V198.056C233.167 197.853 233.236 197.683 233.375 197.544C233.513 197.405 233.684 197.336 233.887 197.336C234.079 197.336 234.244 197.405 234.383 197.544C234.532 197.683 234.607 197.853 234.607 198.056V199.528H235.615C235.785 199.528 235.935 199.592 236.063 199.72C236.191 199.837 236.255 199.981 236.255 200.152C236.255 200.323 236.191 200.472 236.063 200.6C235.945 200.728 235.796 200.792 235.615 200.792H234.607V205.224C234.607 205.512 234.671 205.741 234.799 205.912C234.927 206.083 235.113 206.168 235.359 206.168C235.444 206.168 235.545 206.152 235.663 206.12C235.791 206.088 235.86 206.072 235.871 206.072C236.052 206.072 236.196 206.131 236.303 206.248C236.42 206.355 236.479 206.499 236.479 206.68Z" fill="black"/>
</svg>
