<svg width="50" height="50" viewBox="0 0 50 50" fill="none" xmlns="http://www.w3.org/2000/svg">
<path d="M23.75 31.5001L30.775 25.0001L23.75 18.5001V31.5001Z" fill="#78F2FF"/>
<path d="M25 0C20.0555 0 15.222 1.46622 11.1108 4.21326C6.99952 6.96029 3.79521 10.8648 1.90302 15.4329C0.0108321 20.0011 -0.484251 25.0277 0.480379 29.8772C1.44501 34.7268 3.82603 39.1813 7.32234 42.6777C10.8187 46.174 15.2732 48.555 20.1228 49.5196C24.9723 50.4843 29.9989 49.9892 34.5671 48.097C39.1352 46.2048 43.0397 43.0005 45.7867 38.8892C48.5338 34.778 50 29.9445 50 25C50 21.7169 49.3534 18.466 48.097 15.4329C46.8406 12.3998 44.9991 9.64379 42.6777 7.32233C40.3562 5.00086 37.6002 3.15938 34.5671 1.90301C31.534 0.646644 28.2831 0 25 0V0ZM35 27.95L25.9 36.375C25.105 37.0946 24.0723 37.4952 23 37.5C22.4049 37.4986 21.8169 37.3708 21.275 37.125C20.5376 36.8267 19.906 36.3154 19.4606 35.6563C19.0153 34.9973 18.7766 34.2204 18.775 33.425V16.575C18.7766 15.7796 19.0153 15.0027 19.4606 14.3437C19.906 13.6846 20.5376 13.1733 21.275 12.875C22.0346 12.533 22.8779 12.4217 23.7002 12.5551C24.5225 12.6884 25.2874 13.0605 25.9 13.625L35 22.05C35.4092 22.4247 35.736 22.8805 35.9596 23.3884C36.1832 23.8963 36.2986 24.4451 36.2986 25C36.2986 25.5549 36.1832 26.1037 35.9596 26.6116C35.736 27.1194 35.4092 27.5752 35 27.95V27.95Z" fill="#78F2FF"/>
</svg>
